<svg width="36" height="36" viewBox="0 0 36 36" fill="none" xmlns="http://www.w3.org/2000/svg">
<path d="M9 33.75C8.70172 33.7497 8.41575 33.6311 8.20483 33.4202C7.99392 33.2093 7.8753 32.9233 7.875 32.625V27H4.5C2.63925 27 1.125 25.4858 1.125 23.625V5.625C1.125 3.76425 2.63925 2.25 4.5 2.25H31.5C33.3607 2.25 34.875 3.76425 34.875 5.625V23.625C34.875 25.4858 33.3607 27 31.5 27H17.8324L9.70312 33.5036C9.50362 33.6634 9.25559 33.7503 9 33.75ZM4.5 4.5C3.879 4.5 3.375 5.00513 3.375 5.625V23.625C3.375 24.2449 3.879 24.75 4.5 24.75H9C9.29837 24.75 9.58452 24.8685 9.7955 25.0795C10.0065 25.2905 10.125 25.5766 10.125 25.875V30.285L16.7344 24.9964C16.934 24.8368 17.1819 24.7499 17.4375 24.75H31.5C32.121 24.75 32.625 24.2449 32.625 23.625V5.625C32.625 5.00513 32.121 4.5 31.5 4.5H4.5Z" fill="#4F5B66"/>
<path d="M27 13.5H9C8.70163 13.5 8.41548 13.3815 8.20451 13.1705C7.99353 12.9595 7.875 12.6734 7.875 12.375C7.875 12.0766 7.99353 11.7905 8.20451 11.5795C8.41548 11.3685 8.70163 11.25 9 11.25H27C27.2984 11.25 27.5845 11.3685 27.7955 11.5795C28.0065 11.7905 28.125 12.0766 28.125 12.375C28.125 12.6734 28.0065 12.9595 27.7955 13.1705C27.5845 13.3815 27.2984 13.5 27 13.5ZM18 18H9C8.70163 18 8.41548 17.8815 8.20451 17.6705C7.99353 17.4595 7.875 17.1734 7.875 16.875C7.875 16.5766 7.99353 16.2905 8.20451 16.0795C8.41548 15.8685 8.70163 15.75 9 15.75H18C18.2984 15.75 18.5845 15.8685 18.7955 16.0795C19.0065 16.2905 19.125 16.5766 19.125 16.875C19.125 17.1734 19.0065 17.4595 18.7955 17.6705C18.5845 17.8815 18.2984 18 18 18Z" fill="#4F5B66"/>
</svg>
