<svg width="26" height="27" viewBox="0 0 26 27" fill="none" xmlns="http://www.w3.org/2000/svg">
<path d="M6.76542 16.6037L5.57376 23.5587C5.51959 23.862 5.64417 24.1707 5.89876 24.3549C6.14792 24.5391 6.47834 24.5608 6.75459 24.4145L13 21.132L19.2454 24.4145C19.3646 24.4795 19.4946 24.5066 19.6246 24.5066C19.7925 24.5066 19.9604 24.4524 20.1013 24.3495C20.3504 24.1653 20.475 23.862 20.4263 23.5532L19.2346 16.5982L24.2883 11.6745C24.5104 11.4578 24.5917 11.1382 24.4942 10.8403C24.3967 10.5478 24.1421 10.3312 23.8388 10.2878L16.8513 9.27491L13.7313 2.94283C13.6626 2.80795 13.5579 2.6947 13.4288 2.6156C13.2998 2.53649 13.1514 2.49463 13 2.49463C12.8486 2.49463 12.7002 2.53649 12.5712 2.6156C12.4421 2.6947 12.3375 2.80795 12.2688 2.94283L9.14876 9.27491L2.16126 10.2878C1.85792 10.3312 1.60334 10.5478 1.50584 10.8403C1.40834 11.1328 1.48959 11.4578 1.71167 11.6745L6.76542 16.6037ZM9.80417 10.8187C10.0696 10.7807 10.2971 10.6128 10.4163 10.3745L13 5.142L15.5838 10.3799C15.7029 10.6182 15.9304 10.7862 16.1958 10.8241L21.9754 11.6637L17.7938 15.737C17.6042 15.9212 17.5121 16.192 17.5608 16.4574L18.5467 22.2099L13.3792 19.4907C13.26 19.4312 13.13 19.3987 13 19.3987C12.87 19.3987 12.74 19.4312 12.6208 19.4907L7.45334 22.2099L8.43917 16.4574C8.48251 16.192 8.39584 15.9266 8.20626 15.737L4.02459 11.6582L9.80417 10.8187Z" fill="#4F5B66"/>
</svg>
