<svg width="25" height="25" viewBox="0 0 25 25" fill="none" xmlns="http://www.w3.org/2000/svg">
<g clip-path="url(#clip0_1625_4822)">
<path d="M3.77784 25H21.2223C23.051 25 24.5371 23.5139 24.5371 21.6852V5.16664C24.5371 3.33794 23.051 1.85182 21.2223 1.85182H19.9075V0.925909C19.9075 0.416643 19.4908 0 18.9815 0C18.4722 0 18.0556 0.416643 18.0556 0.925909V1.85182H6.94453V0.925909C6.94453 0.416643 6.52781 0 6.01854 0C5.50928 0 5.09263 0.416643 5.09263 0.925909V1.85182H3.77784C1.94914 1.85182 0.463013 3.33794 0.463013 5.16664V21.6852C0.463013 23.5139 1.94914 25 3.77784 25ZM2.31491 5.16664C2.31491 4.36111 2.97231 3.70371 3.77784 3.70371H5.09263V4.62962C5.09263 5.13889 5.50928 5.55553 6.01854 5.55553C6.52781 5.55553 6.94445 5.13889 6.94445 4.62962V3.70371H18.0556V4.62962C18.0556 5.13889 18.4722 5.55553 18.9815 5.55553C19.4908 5.55553 19.9074 5.13889 19.9074 4.62962V3.70371H21.2222C22.0277 3.70371 22.6851 4.36111 22.6851 5.16664V7.87038H2.31491V5.16664ZM2.31491 9.7222H22.6853V21.6852C22.6853 22.4907 22.0279 23.1481 21.2224 23.1481H3.77784C2.97231 23.1481 2.31491 22.4907 2.31491 21.6852V9.7222Z" fill="#9AAFC4"/>
</g>
<defs>
<clipPath id="clip0_1625_4822">
<rect width="25" height="25" fill="white"/>
</clipPath>
</defs>
</svg>
