<svg width="25" height="25" viewBox="0 0 25 25" fill="none" xmlns="http://www.w3.org/2000/svg">
<path d="M21.2891 2.92969H17.627V2.19727C17.627 0.985693 16.6413 0 15.4297 0H9.57031C8.35874 0 7.37305 0.985693 7.37305 2.19727V2.92969H3.71094C2.49937 2.92969 1.51367 3.91538 1.51367 5.12695C1.51367 6.1 2.14966 6.92681 3.02759 7.21489L4.33398 22.9852C4.42808 24.115 5.38989 25 6.52363 25H18.4764C19.6102 25 20.572 24.115 20.6661 22.9848L21.9724 7.21484C22.8503 6.92681 23.4863 6.1 23.4863 5.12695C23.4863 3.91538 22.5006 2.92969 21.2891 2.92969ZM8.83789 2.19727C8.83789 1.79341 9.16646 1.46484 9.57031 1.46484H15.4297C15.8335 1.46484 16.1621 1.79341 16.1621 2.19727V2.92969H8.83789V2.19727ZM19.2062 22.8636C19.1749 23.2401 18.8543 23.5352 18.4764 23.5352H6.52363C6.14575 23.5352 5.82515 23.2401 5.79385 22.8639L4.50654 7.32422H20.4935L19.2062 22.8636ZM21.2891 5.85938H3.71094C3.30708 5.85938 2.97852 5.53081 2.97852 5.12695C2.97852 4.7231 3.30708 4.39453 3.71094 4.39453H21.2891C21.6929 4.39453 22.0215 4.7231 22.0215 5.12695C22.0215 5.53081 21.6929 5.85938 21.2891 5.85938Z" fill="#4F5B66"/>
<path d="M9.56895 21.2926L8.83653 9.4762C8.81148 9.07244 8.46202 8.76536 8.06021 8.7905C7.65645 8.81555 7.34947 9.16311 7.37447 9.56682L8.10689 21.3833C8.13097 21.7716 8.45343 22.0704 8.83722 22.0704C9.26139 22.0704 9.59498 21.7132 9.56895 21.2926ZM12.5001 8.78914C12.0956 8.78914 11.7676 9.11707 11.7676 9.52156V21.338C11.7676 21.7425 12.0956 22.0704 12.5001 22.0704C12.9046 22.0704 13.2325 21.7425 13.2325 21.338V9.52156C13.2325 9.11707 12.9046 8.78914 12.5001 8.78914ZM16.9399 8.79055C16.537 8.7655 16.1885 9.07249 16.1635 9.47625L15.4311 21.2927C15.4062 21.6964 15.7131 22.0439 16.1169 22.069C16.5208 22.094 16.8682 21.7868 16.8932 21.3833L17.6256 9.56687C17.6506 9.16311 17.3436 8.81555 16.9399 8.79055Z" fill="#4F5B66"/>
</svg>
