<svg width="28" height="28" viewBox="0 0 28 28" fill="none" xmlns="http://www.w3.org/2000/svg">
<path d="M22.9545 12.0123H4.56899L10.1026 6.71929C10.2025 6.62704 10.2821 6.5167 10.3369 6.39469C10.3917 6.27269 10.4206 6.14147 10.4218 6.00869C10.423 5.87591 10.3965 5.74423 10.344 5.62133C10.2914 5.49844 10.2138 5.38679 10.1156 5.29289C10.0174 5.199 9.90071 5.12475 9.77222 5.07447C9.64374 5.02419 9.50607 4.99888 9.36726 5.00004C9.22844 5.00119 9.09126 5.02878 8.9637 5.08119C8.83615 5.1336 8.72079 5.20978 8.62435 5.30529L1.3061 12.3053C1.1101 12.4928 1 12.7471 1 13.0123C1 13.2775 1.1101 13.5318 1.3061 13.7193L8.62435 20.7193C8.82153 20.9014 9.08561 21.0022 9.35973 21C9.63385 20.9977 9.89607 20.8925 10.0899 20.7071C10.2837 20.5217 10.3937 20.2709 10.3961 20.0087C10.3985 19.7465 10.2931 19.4939 10.1026 19.3053L4.56899 14.0123H22.9545C23.2318 14.0123 23.4977 13.9069 23.6938 13.7194C23.8899 13.5319 24 13.2775 24 13.0123C24 12.7471 23.8899 12.4927 23.6938 12.3052C23.4977 12.1176 23.2318 12.0123 22.9545 12.0123Z" fill="#485865"/>
</svg>
