<svg width="28" height="28" viewBox="0 0 28 28" fill="none" xmlns="http://www.w3.org/2000/svg">
<path d="M5.04546 12.0123H23.431L17.8974 6.71929C17.7975 6.62704 17.7179 6.5167 17.6631 6.39469C17.6083 6.27269 17.5794 6.14147 17.5782 6.00869C17.577 5.87591 17.6035 5.74423 17.656 5.62133C17.7086 5.49844 17.7862 5.38679 17.8844 5.29289C17.9826 5.199 18.0993 5.12475 18.2278 5.07447C18.3563 5.02419 18.4939 4.99888 18.6327 5.00004C18.7716 5.00119 18.9087 5.02878 19.0363 5.08119C19.1638 5.1336 19.2792 5.20978 19.3756 5.30529L26.6939 12.3053C26.8899 12.4928 27 12.7471 27 13.0123C27 13.2775 26.8899 13.5318 26.6939 13.7193L19.3756 20.7193C19.1785 20.9014 18.9144 21.0022 18.6403 21C18.3662 20.9977 18.1039 20.8925 17.9101 20.7071C17.7163 20.5217 17.6063 20.2709 17.6039 20.0087C17.6015 19.7465 17.7069 19.4939 17.8974 19.3053L23.431 14.0123H5.04546C4.76819 14.0123 4.50227 13.9069 4.30621 13.7194C4.11015 13.5319 4 13.2775 4 13.0123C4 12.7471 4.11015 12.4927 4.30621 12.3052C4.50227 12.1176 4.76819 12.0123 5.04546 12.0123Z" fill="#485865"/>
</svg>
