<svg width="19" height="19" viewBox="0 0 19 19" fill="none" xmlns="http://www.w3.org/2000/svg">
<path d="M17.9783 16.6866L13.4779 12.1518C14.6355 10.8212 15.2699 9.13684 15.2691 7.39669C15.2691 3.31822 11.8441 0 7.63453 0C3.42492 0 0 3.31822 0 7.39669C0 11.4752 3.42492 14.7934 7.63453 14.7934C9.21488 14.7934 10.7209 14.3316 12.0085 13.4549L16.543 18.0241C16.7326 18.2148 16.9875 18.32 17.2607 18.32C17.5193 18.32 17.7646 18.2245 17.9508 18.0508C18.1408 17.8733 18.2505 17.63 18.2556 17.3742C18.2608 17.1185 18.1611 16.8712 17.9783 16.6866ZM7.63453 1.92957C10.7461 1.92957 13.2774 4.38205 13.2774 7.39669C13.2774 10.4113 10.7461 12.8638 7.63453 12.8638C4.52296 12.8638 1.99162 10.4113 1.99162 7.39669C1.99162 4.38205 4.52296 1.92957 7.63453 1.92957Z" fill="#9AAFC4"/>
</svg>
