<svg width="28" height="29" viewBox="0 0 28 29" fill="none" xmlns="http://www.w3.org/2000/svg">
<path d="M25.8737 10.2825L14.4987 2.40753C14.3523 2.30591 14.1783 2.25146 14 2.25146C13.8217 2.25146 13.6477 2.30591 13.5013 2.40753L2.12625 10.2825C2.01034 10.3629 1.91559 10.4702 1.85008 10.5951C1.78457 10.72 1.75023 10.859 1.75 11V24.125C1.75 24.8212 2.02656 25.4889 2.51884 25.9812C3.01113 26.4735 3.67881 26.75 4.375 26.75H23.625C24.3212 26.75 24.9889 26.4735 25.4812 25.9812C25.9734 25.4889 26.25 24.8212 26.25 24.125V11C26.2498 10.859 26.2154 10.72 26.1499 10.5951C26.0844 10.4702 25.9897 10.3629 25.8737 10.2825ZM14 4.19253L24.5 11.4375L14 18.6825L3.5 11.4375L14 4.19253ZM23.625 25H4.375C4.14294 25 3.92038 24.9078 3.75628 24.7437C3.59219 24.5796 3.5 24.3571 3.5 24.125V13.5463L13.5013 20.4675C13.6477 20.5691 13.8217 20.6236 14 20.6236C14.1783 20.6236 14.3523 20.5691 14.4987 20.4675L24.5 13.5463V24.125C24.5 24.3571 24.4078 24.5796 24.2437 24.7437C24.0796 24.9078 23.8571 25 23.625 25Z" fill="#4F5B66"/>
</svg>
