<svg width="26" height="27" viewBox="0 0 26 27" fill="none" xmlns="http://www.w3.org/2000/svg">
<path fill-rule="evenodd" clip-rule="evenodd" d="M16.25 5.375V7.8125C16.25 8.02799 16.3356 8.23465 16.488 8.38702C16.6403 8.5394 16.847 8.625 17.0625 8.625C17.278 8.625 17.4847 8.5394 17.637 8.38702C17.7894 8.23465 17.875 8.02799 17.875 7.8125V5.375C17.875 5.15951 17.7894 4.95285 17.637 4.80048C17.4847 4.6481 17.278 4.5625 17.0625 4.5625C16.847 4.5625 16.6403 4.6481 16.488 4.80048C16.3356 4.95285 16.25 5.15951 16.25 5.375Z" fill="#4F5B66"/>
<path d="M17.0779 11.0966C17.5908 11.0966 18.0066 10.6808 18.0066 10.1679C18.0066 9.65505 17.5908 9.23926 17.0779 9.23926C16.565 9.23926 16.1492 9.65505 16.1492 10.1679C16.1492 10.6808 16.565 11.0966 17.0779 11.0966Z" fill="#4F5B66"/>
<path fill-rule="evenodd" clip-rule="evenodd" d="M11.4327 7H2.6C2.12631 7 1.67131 7.1885 1.33575 7.52325C1.00094 7.85884 0.812788 8.31345 0.8125 8.7875V23.0875C0.8125 23.5612 1.001 24.0162 1.33575 24.3518C1.67131 24.6865 2.12631 24.875 2.6 24.875H23.4C23.8737 24.875 24.3287 24.6865 24.6643 24.3518C24.999 24.0162 25.1875 23.5612 25.1875 23.0875V8.7875C25.1875 8.31381 24.999 7.85881 24.6643 7.52325C24.3287 7.18844 23.874 7.00029 23.4 7H22.6923C22.2974 4.24481 19.9258 2.125 17.0625 2.125C14.1993 2.125 11.8276 4.24481 11.4327 7ZM2.4375 15.5434V23.0875C2.4375 23.1306 2.45456 23.172 2.48544 23.2021C2.50038 23.2173 2.51821 23.2294 2.53788 23.2376C2.55755 23.2458 2.57867 23.25 2.6 23.25H23.4C23.4213 23.25 23.4424 23.2458 23.4621 23.2376C23.4818 23.2294 23.4996 23.2173 23.5146 23.2021C23.5298 23.1871 23.5419 23.1693 23.5501 23.1496C23.5583 23.1299 23.5625 23.1088 23.5625 23.0875V15.5678L13.832 20.5013C13.5816 20.6283 13.3047 20.6945 13.024 20.6945C12.7432 20.6945 12.4664 20.6283 12.2159 20.5013L2.4375 15.5434ZM23.5625 13.7454V8.7875C23.5625 8.76617 23.5583 8.74505 23.5501 8.72538C23.5419 8.70571 23.5298 8.68788 23.5146 8.67294C23.4996 8.65772 23.4818 8.64564 23.4621 8.63741C23.4424 8.62917 23.4213 8.62496 23.4 8.625H22.6923C22.2974 11.3802 19.9258 13.5 17.0625 13.5C14.1993 13.5 11.8276 11.3802 11.4327 8.625H2.6C2.57867 8.62496 2.55755 8.62917 2.53788 8.63741C2.51821 8.64564 2.50038 8.65772 2.48544 8.67294C2.47022 8.68788 2.45814 8.70571 2.44991 8.72538C2.44167 8.74505 2.43746 8.76617 2.4375 8.7875V13.721L12.9504 19.0518C12.9732 19.0634 12.9984 19.0694 13.024 19.0694C13.0495 19.0694 13.0747 19.0634 13.0975 19.0518L23.5625 13.7454ZM17.0625 3.75C19.305 3.75 21.125 5.57 21.125 7.8125C21.125 10.055 19.305 11.875 17.0625 11.875C14.82 11.875 13 10.055 13 7.8125C13 5.57 14.82 3.75 17.0625 3.75Z" fill="#4F5B66"/>
</svg>
