<svg width="28" height="29" viewBox="0 0 28 29" fill="none" xmlns="http://www.w3.org/2000/svg">
<path d="M11.8125 26.3125C11.5805 26.3125 11.3579 26.2203 11.1938 26.0562C11.0297 25.8921 10.9375 25.6696 10.9375 25.4375V17.0244L2.82627 8.10375C2.50697 7.75189 2.29667 7.31492 2.22088 6.84587C2.14509 6.37681 2.20708 5.89584 2.39932 5.46133C2.59156 5.02682 2.90579 4.65745 3.30387 4.39805C3.70195 4.13865 4.16676 4.00037 4.6419 4H23.3581C23.8333 4.00037 24.2981 4.13865 24.6962 4.39805C25.0943 4.65745 25.4085 5.02682 25.6007 5.46133C25.793 5.89584 25.855 6.37681 25.7792 6.84587C25.7034 7.31492 25.4931 7.75189 25.1738 8.10375L17.0625 17.0244V21.9375C17.0624 22.0686 17.0329 22.198 16.9761 22.3161C16.9193 22.4342 16.8367 22.5381 16.7344 22.62L12.3594 26.12C12.2043 26.2444 12.0114 26.3123 11.8125 26.3125ZM4.6419 5.75C4.50574 5.75034 4.3726 5.79014 4.25859 5.86457C4.14458 5.93901 4.05458 6.04489 3.9995 6.16941C3.94441 6.29393 3.9266 6.43174 3.94821 6.56618C3.96982 6.70061 4.02994 6.8259 4.12127 6.92687L12.46 16.1144C12.6029 16.2715 12.6837 16.4752 12.6875 16.6875V23.6175L15.3125 21.5V16.6875C15.312 16.4691 15.3931 16.2585 15.54 16.0969L23.8788 6.90937C23.9647 6.80794 24.0201 6.68428 24.0387 6.55267C24.0573 6.42106 24.0383 6.28688 23.9838 6.16563C23.9294 6.04437 23.8417 5.941 23.731 5.86746C23.6203 5.79391 23.491 5.75319 23.3581 5.75H4.6419Z" fill="#9AAFC4"/>
</svg>
