<svg width="21" height="20" viewBox="0 0 21 20" fill="none" xmlns="http://www.w3.org/2000/svg">
<path d="M20.8665 9.61156C20.6789 9.36715 16.2089 3.62695 10.4999 3.62695C4.79087 3.62695 0.320656 9.36715 0.133256 9.61133C0.0466631 9.72431 0 9.86057 0 10.0004C0 10.1403 0.0466631 10.2766 0.133256 10.3896C0.320656 10.634 4.79087 16.3742 10.4999 16.3742C16.2089 16.3742 20.6789 10.6339 20.8665 10.3898C20.9532 10.2768 20.9999 10.1406 20.9999 10.0007C20.9999 9.86076 20.9532 9.72449 20.8665 9.61156ZM10.4999 15.0555C6.29458 15.0555 2.65235 11.2456 1.57418 10.0001C2.65096 8.75352 6.28556 4.94563 10.4999 4.94563C14.705 4.94563 18.3469 8.75484 19.4256 10.001C18.3488 11.2476 14.7142 15.0555 10.4999 15.0555Z" fill="#9AAFC4"/>
<path d="M10.4994 6.04492C8.20898 6.04492 6.34552 7.81965 6.34552 10.001C6.34552 12.1823 8.20898 13.957 10.4994 13.957C12.7898 13.957 14.6532 12.1823 14.6532 10.001C14.6532 7.81965 12.7898 6.04492 10.4994 6.04492ZM10.4994 12.6383C8.97237 12.6383 7.73017 11.4552 7.73017 10.001C7.73017 8.54672 8.97241 7.36363 10.4994 7.36363C12.0263 7.36363 13.2686 8.54672 13.2686 10.001C13.2686 11.4552 12.0264 12.6383 10.4994 12.6383Z" fill="#9AAFC4"/>
</svg>
