<svg width="23" height="23" viewBox="0 0 23 23" fill="none" xmlns="http://www.w3.org/2000/svg">
<g clip-path="url(#clip0_1625_4867)">
<path d="M11.5 0C5.14626 0 0 5.14626 0 11.5C0 17.8537 5.14626 22.9999 11.5 22.9999C17.8537 22.9999 23 17.8537 23 11.5C23 5.14621 17.8537 0 11.5 0ZM2.30002 11.5C2.30002 6.417 6.417 2.29996 11.5 2.29996C13.6275 2.29996 15.5768 3.03023 17.135 4.23773L4.23773 17.135C3.03023 15.5767 2.30002 13.6275 2.30002 11.5ZM11.5 20.7C9.37246 20.7 7.42321 19.9697 5.865 18.7622L18.7622 5.865C19.9697 7.42326 20.7 9.37251 20.7 11.5C20.7 16.583 16.583 20.7 11.5 20.7Z" fill="#4F5B66"/>
</g>
<defs>
<clipPath id="clip0_1625_4867">
<rect width="23" height="23" fill="white"/>
</clipPath>
</defs>
</svg>
