<svg width="20" height="21" viewBox="0 0 20 21" fill="none" xmlns="http://www.w3.org/2000/svg">
<g clip-path="url(#clip0_1625_3684)">
<path d="M3.95617 7.27919C2.67673 7.27919 1.63589 6.24782 1.63589 4.98048C1.63589 3.71302 2.67673 2.68161 3.95617 2.68161C5.23548 2.68161 6.27613 3.71286 6.27613 4.98048C6.27613 6.24798 5.23548 7.27919 3.95617 7.27919ZM3.95617 3.32677C3.03238 3.32677 2.28105 4.06867 2.28105 4.98048C2.28105 5.89218 3.03238 6.63403 3.95617 6.63403C4.87968 6.63403 5.63097 5.89218 5.63097 4.98048C5.63097 4.06867 4.87968 3.32677 3.95617 3.32677ZM4.8896 13.6439H0.843145C0.378226 13.6439 0 13.2681 0 12.806V11.7508C0 9.59076 1.77468 7.83326 3.95617 7.83326C4.81415 7.83326 5.63085 8.10101 6.31726 8.60746C6.38609 8.65829 6.43193 8.73437 6.44468 8.81898C6.45744 8.90359 6.43607 8.98981 6.38528 9.05867C6.33445 9.12746 6.2584 9.17326 6.17382 9.18602C6.08924 9.19878 6.00306 9.17746 5.93419 9.12673C5.35944 8.70274 4.67552 8.47843 3.95617 8.47843C2.13048 8.47843 0.645161 9.94657 0.645161 11.7508V12.806C0.645161 12.9122 0.733992 12.9987 0.843145 12.9987H4.88976C5.06774 12.9987 5.21234 13.1431 5.21234 13.3212C5.21234 13.4992 5.06774 13.6438 4.8896 13.6438V13.6439ZM19.1569 13.3997H15.1104C14.9324 13.3997 14.7878 13.2553 14.7878 13.0771C14.7878 12.8992 14.9324 12.7546 15.1104 12.7546H19.157C19.2662 12.7546 19.355 12.6683 19.355 12.5621V11.5069C19.355 9.70234 17.8697 8.23447 16.044 8.23447C15.2815 8.23447 14.5371 8.49705 13.9478 8.97399C13.8095 9.08601 13.6065 9.06472 13.4942 8.92629C13.3822 8.78782 13.4033 8.58463 13.5421 8.4725C14.2457 7.9031 15.1342 7.58931 16.044 7.58931C18.2253 7.58931 20 9.34665 20 11.5069V12.5621C20 13.0239 19.6218 13.3997 19.1569 13.3997ZM16.0438 7.1198C14.7645 7.1198 13.7239 6.08859 13.7239 4.82109C13.7239 3.55359 14.7645 2.52222 16.0438 2.52222C17.3233 2.52222 18.3641 3.55347 18.3641 4.82109C18.3641 6.08871 17.3231 7.1198 16.0438 7.1198ZM16.0438 3.16738C15.1203 3.16738 14.369 3.90927 14.369 4.82109C14.369 5.7329 15.1203 6.47464 16.0438 6.47464C16.9676 6.47464 17.719 5.7329 17.719 4.82109C17.719 3.90927 16.9675 3.16738 16.0438 3.16738Z" fill="#4F5B66"/>
<path d="M14.378 14.6935H5.62173C5.04004 14.6935 4.56689 14.2239 4.56689 13.6464V12.1624C4.56689 9.19645 7.00387 6.78355 9.99988 6.78355C12.9959 6.78355 15.4329 9.19645 15.4329 12.1624V13.6464C15.4329 14.2238 14.9597 14.6935 14.378 14.6935ZM9.99988 7.42887C7.35984 7.42887 5.21206 9.55242 5.21206 12.1625V13.6466C5.21206 13.8682 5.39585 14.0485 5.62173 14.0485H14.3779C14.6038 14.0485 14.7875 13.8682 14.7875 13.6466V12.1625C14.7877 9.55242 12.6399 7.42887 9.99988 7.42887ZM9.88774 6.40661C8.24395 6.40661 6.90637 5.08181 6.90637 3.45315C6.90637 1.82468 8.24383 0.5 9.88778 0.5C11.5319 0.5 12.8693 1.8248 12.8693 3.45331C12.8693 5.08194 11.5317 6.40661 9.88778 6.40661H9.88774ZM9.88774 1.14516C8.5996 1.14516 7.55153 2.18064 7.55153 3.45331C7.55153 4.72617 8.5996 5.76161 9.88774 5.76161C11.176 5.76161 12.2241 4.72613 12.2241 3.45331C12.2241 2.18064 11.176 1.14516 9.88778 1.14516H9.88774Z" fill="#4F5B66"/>
</g>
<defs>
<clipPath id="clip0_1625_3684">
<rect width="20" height="20" fill="white" transform="translate(0 0.5)"/>
</clipPath>
</defs>
</svg>
