<svg width="27" height="27" viewBox="0 0 27 27" fill="none" xmlns="http://www.w3.org/2000/svg">
<g clip-path="url(#clip0_1625_4814)">
<path d="M14.7375 1.125C12.017 1.13824 9.37765 2.0536 7.23311 3.72766C5.08857 5.40172 3.55995 7.7399 2.88674 10.3759L2.06324 9.1305C1.98528 9.00012 1.88172 8.88687 1.75881 8.7976C1.6359 8.70833 1.49618 8.64487 1.34807 8.61106C1.19997 8.57725 1.04655 8.57378 0.897076 8.60087C0.747597 8.62796 0.605154 8.68505 0.478335 8.76868C0.351516 8.85231 0.242949 8.96076 0.159181 9.08749C0.0754126 9.21422 0.018179 9.35661 -0.0090688 9.50606C-0.0363166 9.65551 -0.0330141 9.80893 0.000639524 9.95707C0.0342932 10.1052 0.0976007 10.245 0.186745 10.368L2.66174 14.1188C2.83367 14.3593 3.08714 14.5292 3.37499 14.5969C3.66892 14.6552 3.974 14.5967 4.2255 14.4338L7.938 11.9329C8.066 11.8529 8.17661 11.7481 8.26325 11.6245C8.34988 11.5009 8.41077 11.3612 8.44229 11.2136C8.47381 11.066 8.47532 10.9136 8.44672 10.7654C8.41812 10.6173 8.36 10.4764 8.27582 10.3511C8.19164 10.2259 8.08312 10.1188 7.95672 10.0364C7.83032 9.95394 7.68862 9.89776 7.54007 9.87121C7.39151 9.84465 7.23913 9.84826 7.09199 9.88181C6.94486 9.91536 6.80598 9.97817 6.68362 10.0665L4.995 11.205C5.44441 9.38069 6.39757 7.71943 7.74571 6.41078C9.09386 5.10212 10.7827 4.19875 12.6196 3.80375C14.4564 3.40875 16.3673 3.53802 18.1343 4.17681C19.9012 4.81561 21.453 5.93819 22.6126 7.4165C23.7722 8.8948 24.493 10.6693 24.6926 12.5375C24.8922 14.4057 24.5627 16.2924 23.7416 17.9824C22.9205 19.6723 21.6409 21.0975 20.0489 22.0952C18.4568 23.0929 16.6163 23.623 14.7375 23.625C13.1269 23.6207 11.5411 23.2275 10.115 22.4789C8.68895 21.7303 7.4647 20.6484 6.54637 19.3253C6.46412 19.199 6.35734 19.0905 6.23236 19.0063C6.10738 18.922 5.96674 18.8638 5.81881 18.8349C5.67088 18.8061 5.51867 18.8073 5.37121 18.8385C5.22374 18.8696 5.08404 18.9301 4.9604 19.0162C4.83675 19.1024 4.73168 19.2125 4.65143 19.3401C4.57117 19.4677 4.51736 19.6101 4.4932 19.7588C4.46904 19.9076 4.47502 20.0597 4.51078 20.2061C4.54654 20.3525 4.61135 20.4902 4.70137 20.6111C6.19432 22.7634 8.33831 24.3801 10.8182 25.2235C13.2982 26.0669 15.9832 26.0925 18.4788 25.2967C20.9744 24.5008 23.1489 22.9254 24.6827 20.802C26.2165 18.6787 27.0287 16.1193 27 13.5C27.0111 10.234 25.7263 7.097 23.4274 4.77707C21.1286 2.45714 18.0034 1.14375 14.7375 1.125Z" fill="#4F5B66"/>
<path d="M14.625 6.69385C14.3266 6.69385 14.0405 6.81237 13.8295 7.02335C13.6185 7.23433 13.5 7.52048 13.5 7.81885V13.5001C13.5048 13.7975 13.6226 14.0819 13.8296 14.2955L17.2046 17.7008C17.4164 17.9093 17.7012 18.0268 17.9984 18.0283C18.2956 18.0297 18.5815 17.9151 18.7954 17.7087C19.0072 17.4987 19.1269 17.2131 19.1281 16.9147C19.1294 16.6164 19.0121 16.3298 18.8021 16.118L15.75 13.0377V7.81885C15.75 7.52048 15.6315 7.23433 15.4205 7.02335C15.2095 6.81237 14.9234 6.69385 14.625 6.69385Z" fill="#4F5B66"/>
</g>
<defs>
<clipPath id="clip0_1625_4814">
<rect width="27" height="27" fill="white"/>
</clipPath>
</defs>
</svg>
