<svg width="21" height="21" viewBox="0 0 21 21" fill="none" xmlns="http://www.w3.org/2000/svg">
<path d="M4.67681 9.59629H11.1694C11.4006 9.59629 11.5882 9.4087 11.5882 9.17742C11.5882 8.94613 11.4006 8.75854 11.1694 8.75854H4.67681C4.44539 8.75854 4.25793 8.94613 4.25793 9.17742C4.25793 9.4087 4.44539 9.59629 4.67681 9.59629ZM8.56383 11.4812H4.67681C4.44539 11.4812 4.25793 11.6688 4.25793 11.9001C4.25793 12.1314 4.44539 12.319 4.67681 12.319H8.56383C8.79511 12.319 8.9827 12.1314 8.9827 11.9001C8.9827 11.6688 8.79511 11.4812 8.56383 11.4812Z" fill="#485865"/>
<path d="M15.8355 10.5513V3.31329C15.8353 2.15667 14.8977 1.21933 13.7412 1.21892H12.0238V0.418874C12.0238 0.187455 11.8363 0 11.6049 0C11.3736 0 11.186 0.187455 11.186 0.418874V1.21892H5.48935V0.418874C5.48935 0.187455 5.30189 0 5.07047 0C4.83919 0 4.6516 0.187455 4.6516 0.418874V1.21892H2.93421C1.77772 1.21933 0.84038 2.15667 0.839844 3.31329V14.6606C0.840346 15.8171 1.77772 16.7544 2.93421 16.755H10.6877C11.4936 18.8192 13.655 20.0175 15.8328 19.6075C18.0105 19.1977 19.5883 17.2956 19.5887 15.0795C19.5928 12.8301 17.9718 10.9536 15.8355 10.5513H15.8355ZM2.9385 2.05667H4.65589V2.85672C4.65589 3.08801 4.84334 3.2756 5.07476 3.2756C5.30605 3.2756 5.49364 3.08801 5.49364 2.85672V2.05667H11.1903V2.85672C11.1903 3.08801 11.3778 3.2756 11.6092 3.2756C11.8405 3.2756 12.0281 3.08801 12.0281 2.85672V2.05667H13.7455C14.4385 2.05865 15 2.62007 15.0021 3.31329V4.32697H1.68188V3.31329C1.68238 2.6194 2.24475 2.05721 2.9385 2.05667ZM2.9385 15.9172C2.24525 15.9152 1.68382 15.3537 1.68188 14.6606V5.16053H14.9977V10.4719H14.9852C14.3094 10.4729 13.6421 10.6223 13.0305 10.9096C12.4188 11.1968 11.8777 11.615 11.4454 12.1344C11.0131 12.6538 10.7001 13.2618 10.5287 13.9155C10.3572 14.5691 10.3313 15.2525 10.453 15.9172H2.9385ZM14.9852 18.8493C12.9033 18.8493 11.2153 17.1615 11.2153 15.0795C11.2153 12.9974 12.9033 11.3096 14.9852 11.3096C17.0673 11.3096 18.7551 12.9974 18.7551 15.0795C18.7519 17.1602 17.066 18.8462 14.9852 18.8493Z" fill="#485865"/>
<path d="M16.9246 13.5756L14.4366 15.9506L13.1505 14.6605C12.9876 14.4974 12.7231 14.4974 12.56 14.6605C12.3968 14.8236 12.3968 15.088 12.56 15.2511L14.139 16.8302C14.178 16.8694 14.2244 16.9003 14.2755 16.9212C14.3266 16.9421 14.3814 16.9525 14.4366 16.9517C14.4901 16.9522 14.5432 16.9421 14.5928 16.9219C14.6424 16.9018 14.6874 16.872 14.7255 16.8343L17.5068 14.1745C17.5464 14.1366 17.5783 14.0912 17.6004 14.041C17.6225 13.9908 17.6345 13.9368 17.6358 13.8819C17.6369 13.827 17.6272 13.7725 17.6072 13.7214C17.5873 13.6702 17.5574 13.6235 17.5194 13.584C17.3563 13.4203 17.0923 13.4166 16.9246 13.5756Z" fill="#485865"/>
</svg>
