<svg width="151" height="18" viewBox="0 0 151 18" fill="none" xmlns="http://www.w3.org/2000/svg">
<path d="M34.8251 12.2882C34.7143 13.3614 34.3235 14.3035 33.6586 15.1203C32.9937 15.9371 32.1422 16.5751 31.0982 17.0282C30.0542 17.4873 28.8819 17.7139 27.5813 17.7139C26.1407 17.7139 24.8634 17.4396 23.7611 16.897C22.653 16.3545 21.7956 15.5973 21.1774 14.6195C20.5591 13.6476 20.2559 12.5207 20.2559 11.2508C20.2559 9.98083 20.565 8.85397 21.1774 7.88212C21.7956 6.91028 22.653 6.15307 23.7611 5.60455C24.8693 5.06198 26.1407 4.78772 27.5813 4.78772C28.8819 4.78772 30.0542 5.01429 31.0982 5.47338C32.1422 5.93247 32.9937 6.56447 33.6586 7.37533C34.3235 8.1862 34.7143 9.13419 34.8251 10.2193H30.9408C30.7891 9.4323 30.4042 8.83012 29.7976 8.41872C29.191 8.00137 28.4503 7.79865 27.5813 7.79865C26.8931 7.79865 26.2982 7.93578 25.7849 8.20408C25.2717 8.47238 24.8809 8.87185 24.601 9.38461C24.321 9.89736 24.181 10.5234 24.181 11.2508C24.181 11.9782 24.321 12.6042 24.601 13.117C24.8809 13.6297 25.2775 14.0232 25.7849 14.2975C26.2982 14.5718 26.8931 14.7029 27.5813 14.7029C28.462 14.7029 29.2027 14.4823 29.8093 14.0471C30.41 13.6118 30.7891 13.0216 30.9408 12.2763H34.8251V12.2882Z" fill="#2D3361"/>
<path d="M35.332 8.10273V6.36176L37.8108 5.43761L39.4905 1.87219H41.7185V5.13354H46.886V8.09677H41.7185V12.1332C41.7185 13.0514 41.8993 13.6894 42.2667 14.053C42.6283 14.4167 43.2815 14.6016 44.2206 14.6016C44.8213 14.6016 45.352 14.5479 45.807 14.4406C46.2619 14.3333 46.6935 14.1842 47.0959 13.9994V17.0282C46.676 17.2011 46.1277 17.3561 45.4454 17.4992C44.763 17.6423 44.0631 17.7139 43.334 17.7139C42.0626 17.7139 41.0128 17.5052 40.1962 17.0938C39.3797 16.6764 38.7731 16.0981 38.3882 15.3469C38.0033 14.5956 37.8108 13.7132 37.8108 12.6937V8.10273H35.332Z" fill="#2D3361"/>
<path d="M60.4231 11.2568C60.2131 12.5565 59.8165 13.6953 59.2275 14.6612C58.6384 15.6271 57.8977 16.3783 56.9995 16.9149C56.1013 17.4515 55.0982 17.7198 53.9783 17.7198C52.8002 17.7198 51.7679 17.4456 50.8814 16.903C49.9948 16.3604 49.2949 15.6032 48.7934 14.6374C48.2918 13.6715 48.0352 12.5446 48.0352 11.2568C48.0352 9.96892 48.2859 8.84206 48.7934 7.87618C49.2949 6.9103 49.9948 6.15905 50.8814 5.61053C51.7679 5.06796 52.8002 4.7937 53.9783 4.7937C55.1565 4.7937 56.1072 5.062 56.9995 5.5986C57.8977 6.13521 58.6384 6.88048 59.2333 7.8404C59.8282 8.80033 60.2248 9.93911 60.4173 11.2508L60.4231 11.2568ZM51.9837 11.2568C51.9837 11.9126 52.1178 12.4969 52.3803 13.0037C52.6486 13.5105 53.016 13.91 53.4826 14.2081C53.9492 14.5002 54.4916 14.6493 55.1098 14.6493C55.728 14.6493 56.3113 14.5002 56.8654 14.2081C57.4194 13.9159 57.9035 13.5165 58.3235 13.0037C58.7434 12.4969 59.0583 11.9126 59.2683 11.2568C59.0583 10.6009 58.7434 10.0166 58.3235 9.50983C57.9035 9.00304 57.4194 8.60357 56.8654 8.30546C56.3113 8.01331 55.728 7.86425 55.1098 7.86425C54.4916 7.86425 53.9492 8.01331 53.4826 8.30546C53.016 8.59761 52.6486 8.99708 52.3803 9.50983C52.112 10.0166 51.9837 10.6009 51.9837 11.2568ZM59.4608 17.374L58.9359 12.9322L59.5016 11.2568L58.9359 9.60523L59.4608 5.13951H63.5143L62.7794 11.2568L63.5143 17.374H59.4608Z" fill="#2D3361"/>
<path d="M75.5817 9.67075L75.815 9.15799C77.0865 9.16992 78.1188 9.36667 78.9003 9.74826C79.6819 10.1298 80.2593 10.6366 80.6209 11.2746C80.9825 11.9125 81.1691 12.6161 81.1691 13.3912C81.1691 14.2378 80.9708 14.9831 80.5684 15.633C80.1718 16.2829 79.5827 16.7956 78.8128 17.1653C78.043 17.5349 77.0923 17.7257 75.955 17.7257H66.0225L67.2589 9.46207L66.0225 1.62769H75.5992C77.0573 1.62769 78.1713 1.9735 78.947 2.67108C79.7227 3.36866 80.1135 4.31069 80.1135 5.51507C80.1135 6.14706 79.9618 6.76117 79.6644 7.36932C79.3611 7.97747 78.8828 8.49022 78.2238 8.91354C77.5647 9.33686 76.684 9.58728 75.5759 9.67671L75.5817 9.67075ZM68.0463 17.052L67.2881 16.0444H75.8558C76.894 16.0444 77.6989 15.8059 78.2821 15.323C78.8653 14.846 79.1511 14.1544 79.1511 13.2541C79.1511 12.2941 78.807 11.5608 78.1246 11.0421C77.4364 10.5293 76.4216 10.267 75.0801 10.267H68.2796V8.63332H74.9751C75.8733 8.63332 76.614 8.3829 77.2089 7.88207C77.8038 7.38125 78.1013 6.65385 78.1013 5.69393C78.1013 4.99039 77.8622 4.41801 77.3781 3.96488C76.894 3.51175 76.1825 3.29115 75.2493 3.29115H67.2939L68.0521 2.28353L69.1836 9.45014L68.0521 17.046L68.0463 17.052Z" fill="#2D3361"/>
<path d="M84.6107 3.80985C84.2199 3.80985 83.8875 3.68464 83.6133 3.43423C83.3392 3.18382 83.2051 2.86782 83.2051 2.48027C83.2051 2.09273 83.3392 1.79461 83.6133 1.5442C83.8875 1.29379 84.2199 1.16858 84.6107 1.16858C85.0306 1.16858 85.3747 1.29379 85.6372 1.5442C85.8996 1.79461 86.0338 2.10465 86.0338 2.48027C86.0338 2.85589 85.8996 3.18382 85.6372 3.43423C85.3747 3.68464 85.0306 3.80985 84.6107 3.80985ZM83.6658 5.59256L84.634 5.76547L85.6022 5.59256V17.7198H83.6717V5.59256H83.6658Z" fill="#2D3361"/>
<path d="M95.0213 18C93.6331 18 92.4142 17.7376 91.3585 17.207C90.3029 16.6763 89.4805 15.9311 88.8914 14.9771C88.3024 14.0172 88.0107 12.9142 88.0107 11.674C88.0107 10.4339 88.3024 9.31297 88.8914 8.37093C89.4805 7.4289 90.3029 6.68958 91.3585 6.15894C92.4142 5.62831 93.639 5.36597 95.0213 5.36597C96.4035 5.36597 97.6458 5.62831 98.6956 6.15894C99.7455 6.68958 100.568 7.42294 101.163 8.37093C101.758 9.31297 102.055 10.416 102.055 11.674C102.055 12.932 101.758 14.0231 101.163 14.9771C100.568 15.937 99.7455 16.6823 98.6956 17.207C97.6458 17.7316 96.421 18 95.0213 18ZM95.0213 16.3484C96.0594 16.3484 96.9518 16.1576 97.71 15.782C98.4682 15.4004 99.0514 14.8638 99.4655 14.1603C99.8796 13.4567 100.084 12.628 100.084 11.6681C100.084 10.7081 99.8796 9.90323 99.4655 9.19969C99.0514 8.49614 98.4682 7.95358 97.71 7.56603C96.9518 7.17849 96.0594 6.9877 95.0213 6.9877C93.9831 6.9877 93.1082 7.17849 92.3442 7.56603C91.5802 7.95358 90.9969 8.49614 90.5887 9.19969C90.1804 9.90323 89.9821 10.726 89.9821 11.6681C89.9821 12.6101 90.1862 13.4567 90.5887 14.1603C90.9969 14.8638 91.5802 15.4004 92.3442 15.782C93.1082 16.1636 94.0006 16.3484 95.0213 16.3484Z" fill="#2D3361"/>
<path d="M103.927 5.63435H105.857L106.528 9.73637V17.7198H104.597V9.45615L103.927 5.63435ZM111.421 5.35413C112.529 5.35413 113.463 5.58069 114.233 6.02786C115.002 6.48099 115.591 7.13087 115.994 7.98347C116.396 8.83607 116.6 9.86158 116.6 11.066V17.7198H114.67V11.4118C114.67 9.9689 114.343 8.87781 113.696 8.13849C113.043 7.39917 112.098 7.03548 110.85 7.03548C109.981 7.03548 109.223 7.23819 108.569 7.63766C107.916 8.03713 107.415 8.59162 107.059 9.30113C106.703 10.0106 106.522 10.8334 106.522 11.7814L105.746 11.221C105.846 10.0166 106.143 8.97917 106.65 8.10868C107.152 7.23819 107.817 6.5585 108.633 6.08152C109.45 5.60454 110.377 5.36009 111.416 5.36009L111.421 5.35413Z" fill="#2D3361"/>
<path d="M120.514 3.80985C120.123 3.80985 119.791 3.68464 119.517 3.43423C119.243 3.18382 119.108 2.86782 119.108 2.48027C119.108 2.09273 119.243 1.79461 119.517 1.5442C119.791 1.29379 120.123 1.16858 120.514 1.16858C120.934 1.16858 121.278 1.29379 121.54 1.5442C121.803 1.79461 121.937 2.10465 121.937 2.48027C121.937 2.85589 121.803 3.18382 121.54 3.43423C121.278 3.68464 120.934 3.80985 120.514 3.80985ZM119.569 5.59256L120.537 5.76547L121.506 5.59256V17.7198H119.575V5.59256H119.569Z" fill="#2D3361"/>
<path d="M137.184 13.1289C137.032 14.0888 136.647 14.9295 136.041 15.6628C135.434 16.3902 134.658 16.9626 133.719 17.38C132.78 17.7973 131.748 18 130.611 18C129.292 18 128.132 17.7317 127.123 17.1951C126.114 16.6585 125.326 15.9133 124.761 14.9653C124.195 14.0113 123.909 12.9142 123.909 11.6681C123.909 10.422 124.195 9.32498 124.761 8.37102C125.326 7.41706 126.114 6.67774 127.123 6.1471C128.132 5.61647 129.292 5.35413 130.611 5.35413C131.742 5.35413 132.78 5.55684 133.719 5.96824C134.658 6.37367 135.428 6.94604 136.041 7.67344C136.647 8.40083 137.032 9.25343 137.184 10.2253H135.189C134.979 9.22362 134.46 8.43064 133.626 7.8523C132.792 7.27397 131.789 6.98182 130.611 6.98182C129.66 6.98182 128.832 7.17261 128.12 7.56015C127.414 7.9477 126.866 8.4843 126.47 9.18188C126.079 9.87947 125.881 10.7023 125.881 11.6622C125.881 12.6221 126.079 13.4508 126.47 14.1544C126.86 14.8579 127.409 15.3945 128.12 15.7761C128.826 16.1577 129.654 16.3425 130.611 16.3425C131.8 16.3425 132.809 16.0504 133.643 15.4601C134.477 14.8758 134.991 14.0948 135.189 13.1229H137.184V13.1289Z" fill="#2D3361"/>
<path d="M151 14.1782C151 14.9532 150.773 15.621 150.318 16.1934C149.863 16.7658 149.198 17.2129 148.323 17.523C147.448 17.833 146.387 17.994 145.145 17.994C143.902 17.994 142.747 17.8092 141.773 17.4455C140.799 17.0818 140.041 16.569 139.493 15.9132C138.945 15.2573 138.653 14.4882 138.612 13.6177H140.584C140.665 14.1782 140.91 14.6671 141.319 15.0904C141.727 15.5137 142.258 15.8357 142.917 16.0682C143.576 16.2948 144.322 16.414 145.162 16.414C146.381 16.414 147.338 16.2232 148.026 15.8476C148.72 15.466 149.064 14.9473 149.064 14.2914C149.064 13.7787 148.842 13.3911 148.393 13.1407C147.944 12.8903 147.11 12.6995 145.897 12.5743L143.611 12.3358C142.479 12.2225 141.569 12.0079 140.893 11.7038C140.216 11.3938 139.726 11.0122 139.435 10.5472C139.143 10.0821 138.991 9.56338 138.991 8.99101C138.991 8.20399 139.225 7.54218 139.697 7.00558C140.164 6.46898 140.823 6.06355 141.663 5.78332C142.502 5.5031 143.476 5.36597 144.579 5.36597C145.757 5.36597 146.801 5.53887 147.717 5.87872C148.632 6.22453 149.367 6.70151 149.91 7.31562C150.458 7.92973 150.755 8.63924 150.814 9.43818H148.86C148.79 8.97908 148.58 8.56173 148.23 8.18014C147.88 7.79856 147.396 7.49449 146.772 7.26792C146.148 7.04136 145.384 6.92211 144.474 6.92211C143.354 6.92211 142.485 7.08905 141.861 7.41698C141.237 7.7449 140.928 8.22784 140.928 8.85388C140.928 9.31297 141.132 9.67667 141.534 9.95093C141.937 10.2252 142.66 10.416 143.698 10.5293L146.299 10.8095C147.489 10.9228 148.428 11.1255 149.111 11.4117C149.793 11.6979 150.283 12.0675 150.569 12.5266C150.854 12.9857 151 13.5342 151 14.1782Z" fill="#2D3361"/>
<path d="M6.43945 15.5853L7.14517 14.9175C7.80423 15.0845 8.49828 15.1679 9.23316 15.1679C13.3216 15.1679 16.1737 12.5028 16.1737 8.68103C16.1737 7.97749 16.0804 7.30971 15.8937 6.68964L16.7219 5.91455V11.5012L12.3826 15.5853H6.45112H6.43945Z" fill="#2D3361"/>
<path d="M16.7394 3.46411L13.7882 6.24251C14.1906 6.92221 14.4239 7.73904 14.4239 8.68703C14.4239 11.6801 12.1785 13.3853 9.23311 13.3853C8.31159 13.3853 7.46007 13.2183 6.71936 12.8964L3.68652 15.7523L5.4129 17.374H13.0591L18.4657 12.2823V5.08584L16.7394 3.46411Z" fill="#2D3361"/>
<path d="M1.75 11.5012V5.87283L6.08928 1.7887H12.1666L11.4259 2.48628C10.7377 2.29549 10.0028 2.20009 9.23293 2.20009C5.15027 2.20009 2.29241 4.86521 2.29241 8.68701C2.29241 9.43229 2.39739 10.1299 2.60736 10.7857L1.79666 11.5489L1.75 11.5012Z" fill="#2D3361"/>
<path d="M13.0587 0H5.41244L0 5.09175V12.2882L1.79637 13.9815L4.72422 11.2209C4.28679 10.5293 4.036 9.68268 4.036 8.68698C4.036 5.67605 6.29312 3.98874 9.22681 3.98874C10.1833 3.98874 11.0698 4.17357 11.8339 4.5313L14.8492 1.69328L13.0528 0L13.0587 0Z" fill="#2D3361"/>
</svg>
