<svg width="232" height="42" viewBox="0 0 232 42" fill="none" xmlns="http://www.w3.org/2000/svg">
<path d="M7.26 17.82C5.19333 17.82 3.61333 17.3 2.52 16.26C1.42667 15.22 0.88 13.7133 0.88 11.74L0.88 8L3.52 8L3.52 11.54C3.52 12.8333 3.88 13.82 4.6 14.5C5.32 15.1667 6.38 15.5 7.78 15.5C8.58 15.5 9.42 15.4067 10.3 15.22C11.18 15.02 12.0533 14.7467 12.92 14.4L13.1 16.54C12.22 16.9533 11.2733 17.2733 10.26 17.5C9.26 17.7133 8.26 17.82 7.26 17.82ZM12.52 23L12.52 8L15.16 8L15.16 23L12.52 23ZM17.8788 23L17.8788 11.68L20.4388 11.68L20.4388 21.7L19.6588 21.52L27.3988 11.68L30.7588 11.68L30.7588 23L28.1988 23L28.1988 12.84L28.9988 13.04L21.1588 23L17.8788 23ZM36.8833 12.58L39.4833 12.58L39.4833 23L36.8833 23L36.8833 12.58ZM32.1833 11.68L44.1833 11.68V13.72L32.1833 13.72V11.68ZM55.6941 23L55.2541 18.8L55.7741 17.34L55.2541 15.9L55.6941 11.68L58.3741 11.68L57.7741 17.34L58.3741 23L55.6941 23ZM56.4941 17.34C56.2407 18.5267 55.8207 19.5667 55.2341 20.46C54.6474 21.3533 53.9207 22.0467 53.0541 22.54C52.2007 23.0333 51.2474 23.28 50.1941 23.28C49.0874 23.28 48.1074 23.0333 47.2541 22.54C46.4007 22.0333 45.7341 21.3333 45.2541 20.44C44.7741 19.5467 44.5341 18.5133 44.5341 17.34C44.5341 16.1533 44.7741 15.12 45.2541 14.24C45.7341 13.3467 46.4007 12.6533 47.2541 12.16C48.1074 11.6533 49.0874 11.4 50.1941 11.4C51.2474 11.4 52.2007 11.6467 53.0541 12.14C53.9207 12.6333 54.6474 13.3267 55.2341 14.22C55.8341 15.1 56.2541 16.14 56.4941 17.34ZM47.1741 17.34C47.1741 18.1 47.3274 18.7733 47.6341 19.36C47.9541 19.9333 48.3874 20.3867 48.9341 20.72C49.4807 21.04 50.1074 21.2 50.8141 21.2C51.5341 21.2 52.2007 21.04 52.8141 20.72C53.4274 20.3867 53.9674 19.9333 54.4341 19.36C54.9141 18.7733 55.2941 18.1 55.5741 17.34C55.2941 16.58 54.9141 15.9133 54.4341 15.34C53.9674 14.7533 53.4274 14.3 52.8141 13.98C52.2007 13.6467 51.5341 13.48 50.8141 13.48C50.1074 13.48 49.4807 13.6467 48.9341 13.98C48.3874 14.3 47.9541 14.7533 47.6341 15.34C47.3274 15.9133 47.1741 16.58 47.1741 17.34ZM64.2362 12.58L66.8362 12.58L66.8362 23L64.2362 23L64.2362 12.58ZM59.5362 11.68L71.5362 11.68L71.5362 13.72L59.5362 13.72V11.68ZM72.9558 23L72.9558 11.68L75.5158 11.68L75.5158 21.7L74.7358 21.52L82.4758 11.68L85.8358 11.68L85.8358 23L83.2758 23L83.2758 12.84L84.0758 13.04L76.2358 23L72.9558 23ZM105.573 11.68L105.573 23L102.973 23L102.973 12.5L104.173 13.68L94.8533 13.68L96.0533 12.5L96.0533 23L93.4533 23L93.4533 11.68L105.573 11.68ZM114.376 23.28C113.003 23.28 111.796 23.0333 110.756 22.54C109.729 22.0333 108.923 21.3333 108.336 20.44C107.763 19.5467 107.476 18.5133 107.476 17.34C107.476 16.1533 107.763 15.12 108.336 14.24C108.923 13.3467 109.729 12.6533 110.756 12.16C111.796 11.6533 113.003 11.4 114.376 11.4C115.749 11.4 116.949 11.6533 117.976 12.16C119.016 12.6533 119.823 13.3467 120.396 14.24C120.983 15.12 121.276 16.1533 121.276 17.34C121.276 18.5133 120.983 19.5467 120.396 20.44C119.823 21.3333 119.016 22.0333 117.976 22.54C116.949 23.0333 115.749 23.28 114.376 23.28ZM114.376 21.24C115.256 21.24 116.009 21.08 116.636 20.76C117.276 20.44 117.769 19.9933 118.116 19.42C118.463 18.8333 118.636 18.14 118.636 17.34C118.636 16.54 118.463 15.8533 118.116 15.28C117.769 14.6933 117.276 14.24 116.636 13.92C116.009 13.6 115.256 13.44 114.376 13.44C113.509 13.44 112.756 13.6 112.116 13.92C111.476 14.24 110.983 14.6933 110.636 15.28C110.289 15.8533 110.116 16.54 110.116 17.34C110.116 18.14 110.289 18.8333 110.636 19.42C110.983 19.9933 111.476 20.44 112.116 20.76C112.756 21.08 113.509 21.24 114.376 21.24ZM122.91 23L123.49 17.34L122.91 11.68L131.11 11.68C132.203 11.68 133.056 11.9333 133.67 12.44C134.296 12.9467 134.61 13.6467 134.61 14.54C134.61 15.3667 134.296 16.0333 133.67 16.54C133.056 17.0333 132.196 17.3267 131.09 17.42L131.29 16.94C132.596 16.9667 133.596 17.2333 134.29 17.74C134.983 18.2467 135.33 18.96 135.33 19.88C135.33 20.8533 134.976 21.62 134.27 22.18C133.576 22.7267 132.61 23 131.37 23L122.91 23ZM125.43 22.36L124.43 21.2L130.71 21.2C131.416 21.2 131.923 21.0667 132.23 20.8C132.55 20.52 132.71 20.1333 132.71 19.64C132.71 19.2 132.53 18.8333 132.17 18.54C131.823 18.2467 131.236 18.1 130.41 18.1L124.99 18.1V16.42L130.03 16.42C130.71 16.42 131.203 16.2867 131.51 16.02C131.83 15.74 131.99 15.38 131.99 14.94C131.99 14.5133 131.85 14.1667 131.57 13.9C131.303 13.62 130.85 13.48 130.21 13.48L124.45 13.48L125.43 12.34L125.99 17.34L125.43 22.36ZM137.207 11.68L139.787 11.68V23L137.207 23V11.68ZM146.827 11.68L149.407 11.68V23L146.827 23V11.68ZM138.667 16.26L147.907 16.26V18.26L138.667 18.26V16.26ZM151.948 11.6L153.248 11.84L154.548 11.6V23L151.948 23V11.6ZM153.248 10.18C152.755 10.18 152.348 10.0467 152.028 9.78C151.708 9.5 151.548 9.14 151.548 8.7C151.548 8.26 151.708 7.90667 152.028 7.64C152.348 7.36 152.755 7.22 153.248 7.22C153.755 7.22 154.162 7.36 154.468 7.64C154.788 7.90667 154.948 8.26 154.948 8.7C154.948 9.14 154.788 9.5 154.468 9.78C154.162 10.0467 153.755 10.18 153.248 10.18ZM169.58 18.54C169.447 19.4733 169.08 20.3 168.48 21.02C167.88 21.7267 167.113 22.28 166.18 22.68C165.247 23.08 164.207 23.28 163.06 23.28C161.753 23.28 160.6 23.0333 159.6 22.54C158.613 22.0333 157.84 21.3333 157.28 20.44C156.72 19.5467 156.44 18.5133 156.44 17.34C156.44 16.1667 156.72 15.1333 157.28 14.24C157.84 13.3467 158.613 12.6533 159.6 12.16C160.6 11.6533 161.753 11.4 163.06 11.4C164.207 11.4 165.247 11.6 166.18 12C167.113 12.4 167.88 12.96 168.48 13.68C169.08 14.3867 169.447 15.2133 169.58 16.16L166.96 16.16C166.773 15.3067 166.327 14.64 165.62 14.16C164.913 13.68 164.06 13.44 163.06 13.44C162.26 13.44 161.56 13.6 160.96 13.92C160.36 14.2267 159.893 14.6733 159.56 15.26C159.24 15.8333 159.08 16.5267 159.08 17.34C159.08 18.14 159.24 18.8333 159.56 19.42C159.893 20.0067 160.36 20.46 160.96 20.78C161.56 21.0867 162.26 21.24 163.06 21.24C164.073 21.24 164.933 20.9933 165.64 20.5C166.347 20.0067 166.787 19.3533 166.96 18.54L169.58 18.54ZM174.424 12.58L177.024 12.58V23L174.424 23V12.58ZM169.724 11.68L181.724 11.68V13.72L169.724 13.72V11.68ZM194.784 23.28C193.437 23.28 192.25 23.0333 191.224 22.54C190.197 22.0333 189.397 21.3333 188.824 20.44C188.264 19.5467 187.984 18.5133 187.984 17.34C187.984 16.1533 188.264 15.12 188.824 14.24C189.397 13.3467 190.197 12.6533 191.224 12.16C192.25 11.6533 193.437 11.4 194.784 11.4C196.144 11.4 197.33 11.6533 198.344 12.16C199.37 12.6533 200.17 13.3467 200.744 14.24C201.317 15.12 201.604 16.1533 201.604 17.34C201.604 18.5133 201.317 19.5467 200.744 20.44C200.17 21.3333 199.37 22.0333 198.344 22.54C197.33 23.0333 196.144 23.28 194.784 23.28ZM183.144 23V11.68L185.744 11.68V23L183.144 23ZM184.584 18.26V16.26L189.584 16.26V18.26L184.584 18.26ZM194.784 21.24C195.65 21.24 196.39 21.08 197.004 20.76C197.63 20.44 198.11 19.9867 198.444 19.4C198.79 18.8133 198.964 18.1267 198.964 17.34C198.964 16.54 198.79 15.8533 198.444 15.28C198.11 14.6933 197.63 14.24 197.004 13.92C196.39 13.6 195.65 13.44 194.784 13.44C193.93 13.44 193.19 13.6 192.564 13.92C191.937 14.24 191.45 14.6933 191.104 15.28C190.77 15.8533 190.604 16.54 190.604 17.34C190.604 18.1267 190.77 18.8133 191.104 19.4C191.45 19.9867 191.937 20.44 192.564 20.76C193.19 21.08 193.93 21.24 194.784 21.24Z" fill="#D1D8F4"/>
<path d="M-5.84597e-07 27.6257L219.5 27.6217M219.5 27.6217L207.719 13.9998M219.5 27.6217L207.719 40.9997" stroke="#D1D8F4" stroke-width="3"/>
</svg>
